<svg xmlns="http://www.w3.org/2000/svg" viewBox="0 0 445.92 534.18"><defs><style>.cls-1{fill:#5d3fa2;}.cls-2{fill:#c42184;}.cls-3{fill:#3f98db;}.cls-4{fill:#b2b2b4;}</style></defs><g id="Layer_2" data-name="Layer 2"><g id="Layer_1-2" data-name="Layer 1"><path class="cls-1" d="M188.88,256.87c-14.56-17.2-24.42-37.17-33.86-57.38-1.47-3.14-3-6.27-4.64-9.83-32,11.28-63.92,21.54-97.85,26.8a429.91,429.91,0,0,1-31.42-96.65c-1.73-8.87-3.33-17.77-5-26.66,2.66-1.34,5.2-3.41,8-3.88,18.17-3,36.45-5.23,54.26-10.38,44-12.71,84.59-32,121.07-59.76C207.4,13.1,215,6.64,223.24,0,267,39.35,317.93,65.4,374.77,81.7a14.66,14.66,0,0,1-1.5,5.5c-20.91,39.6-49,73.51-82.44,103A421,421,0,0,1,188.88,256.87Z"/><path class="cls-2" d="M15.88,93.44c1.9,8.6,3.5,17.5,5.23,26.37,6.49,33.32,17.13,65.33,31,96.67,4.8,10.23,8.93,20.4,14,30.1,20.51,39.61,47.1,74.83,78.59,106.28a432,432,0,0,0,60.82,50.95,348.86,348.86,0,0,0,67.11,39.37c18.37,8.12,37.27,15,55.94,22.49C316.36,476,304.67,487,291.94,496.51c-19.77,14.84-41.51,26.49-64.09,36.56a11,11,0,0,1-9.88-.14,369.27,369.27,0,0,1-121.36-87c-31.16-33.66-54.69-72-71.36-114.67A370.32,370.32,0,0,1,2.2,157,314.28,314.28,0,0,1,15.88,93.44Z"/><path class="cls-3" d="M328.82,465.54c-19-7.32-37.87-14.24-56.24-22.36a342.83,342.83,0,0,1-66.8-39.25c11.16-9.58,22.63-18.69,33.79-28.17a620.58,620.58,0,0,0,61.53-60.58,649.15,649.15,0,0,0,52.36-67.37A609.14,609.14,0,0,0,426.81,99.1c.54-1.57,1.08-3.15,1.65-4.71a12.39,12.39,0,0,1,1.38-1.63c1.26,2.78,2.86,5.06,3.36,7.57,3.46,17.24,7.47,34.42,9.78,51.83a356.08,356.08,0,0,1,2.94,46.74,361.73,361.73,0,0,1-28.76,141.24C396.94,388.29,367.94,430.3,328.82,465.54Z"/><path class="cls-4" d="M189,257.17a432.77,432.77,0,0,0,101.84-66.93c33.46-29.53,61.53-63.44,82.44-103a28.25,28.25,0,0,0,1.87-5.39c.65-.79,1.64-1,2-1.66,6-10.67,10.72-21.73,11.17-34.26.62-16.75-9.21-21.51-24-18.89-8.37,1.48-16.29,5.5-24.41,8.4-2,.7-3.88,1.49-5.81,2.24l-1.17-1.81c7.69-5.89,15-12.32,23.14-17.54C367.33,11,379.54,6.2,393.45,6c10-.13,16,5,20.27,12.78,5.1,9.23,4.14,19.41,2.87,29.31-3.93,30.46-18.69,56.7-33.57,82.67-22.1,38.58-50.64,72.11-83.26,102.18a357.11,357.11,0,0,1-75.92,53.8c-1.61.85-4.88.78-6.14-.3-6.92-5.93-13.6-12.16-20.07-18.58C194.46,264.73,191.93,261,189,257.17Z"/></g></g></svg>