<svg xmlns="http://www.w3.org/2000/svg" viewBox="0 0 445.88 534.17"><defs><style>.cls-1{fill:#fff;}</style></defs><g id="Layer_2" data-name="Layer 2"><g id="Layer_1-2" data-name="Layer 1"><g id="Layer_2-2" data-name="Layer 2"><g id="Layer_1-2-2" data-name="Layer 1-2"><path class="cls-1" d="M445.87,198.85a361.69,361.69,0,0,1-28.76,141.24c-20.21,48.15-49.22,90.17-88.33,125.4-13-5-26.06-9.83-38.88-15,12.8,5.18,25.74,10.05,38.57,15.18-12.15,10.32-23.84,21.27-36.58,30.83-19.77,14.84-41.5,26.5-64.09,36.56a11,11,0,0,1-9.88-.14,369.25,369.25,0,0,1-121.36-87c-31.16-33.68-54.69-72-71.36-114.68A370.63,370.63,0,0,1,2.15,157a314.82,314.82,0,0,1,13.7-63.57L52,216.48c4.86,10.23,9,20.39,14,30.09,20.51,39.61,47.11,74.83,78.59,106.29a431.93,431.93,0,0,0,60.83,50.95q12,8.88,24.35,16.64-12.27-7.72-24.05-16.52c11.17-9.59,22.63-18.7,33.79-28.17a619.61,619.61,0,0,0,61.53-60.59,650.8,650.8,0,0,0,52.37-67.36A610.22,610.22,0,0,0,426.79,99.1c.53-1.58,1.07-3.15,1.65-4.71.1-.29.37-.5,1.37-1.64,1.27,2.78,2.86,5.07,3.36,7.58,3.47,17.24,7.47,34.42,9.78,51.82A357.52,357.52,0,0,1,445.87,198.85Z"/><path class="cls-1" d="M416.55,48.15c-3.92,30.45-18.69,56.66-33.57,82.66-22.09,38.58-50.64,72.12-83.26,102.19a356.27,356.27,0,0,1-75.91,53.75c-1.61.85-4.87.79-6.14-.3-6.92-5.92-13.6-12.16-20.07-18.58-3.16-3.14-5.7-6.92-8.64-10.71,10-4.71,9.93-5-.15-.3-14.56-17.19-24.41-37.17-33.86-57.38-1.46-3.14-3-6.26-4.64-9.82a545.09,545.09,0,0,1-98.4,24.92L16.1,93.14c2.65-1.33,5.2-3.41,8-3.88,18.18-3,36.45-5.26,54.27-10.37,43.95-12.72,84.59-32,121.06-59.76C207.36,13.1,215,6.64,223.2,0,267,39.34,317.89,65.4,374.71,81.68c-.12,1.32,0,1.47.38.1.68-.79,1.66-1,2-1.65,6-10.67,10.72-21.73,11.18-34.26.6-16.76-9.23-21.52-24-18.9-8.42,1.49-16.3,5.5-24.42,8.4-2,.7-3.88,1.49-5.81,2.24-.39-.6-.78-1.2-1.16-1.8,7.68-5.89,15-12.32,23.13-17.55C367.3,11,379.5,6.18,393.41,6c10-.11,16,5,20.27,12.84C418.79,28.06,417.82,38.25,416.55,48.15Z"/></g></g></g></g></svg>